<svg width="375" height="812" viewBox="0 0 375 812" fill="none" xmlns="http://www.w3.org/2000/svg">
<rect width="375" height="812" fill="white"/>
<g clip-path="url(#clip0_1006_78128)">
<rect x="20" y="39" width="335" height="567" rx="32" fill="#FCFF76"/>
<path fill-rule="evenodd" clip-rule="evenodd" d="M387.258 259.714C384.638 265.643 382.247 271.062 381.203 274.021L415.15 286.003C415.606 284.712 417.215 280.991 420.187 274.263C420.531 273.484 420.889 272.675 421.259 271.839C423.873 265.926 427.096 258.637 430.582 250.523C438.517 232.053 448.005 208.871 455.228 186.717C462.159 165.456 468.078 142.091 466.52 124.574C465.737 115.776 462.655 103.941 451.916 96.7697C441.095 89.5432 428.42 90.9835 418.023 94.423C399.412 100.58 376.52 113.093 354.464 125.64C349.674 128.365 344.897 131.107 340.154 133.83C322.292 144.085 304.912 154.063 289.139 161.782C279.219 166.637 270.582 170.267 263.44 172.413C257.553 174.181 253.897 174.559 251.936 174.509C251.52 172.117 251.36 166.996 253.299 157.68C261.546 118.052 288.776 84.7812 311.232 57.3436C313.7 54.3275 316.111 51.3818 318.433 48.506C324.001 41.6077 329.392 34.6504 333.279 28.2044C336.681 22.5624 341.4 13.4837 340.169 3.40023C338.557 -9.7927 328.525 -16.5989 319.703 -19.552C311.435 -22.3196 300.892 -23.117 288.98 -22.9868C261.412 -22.6855 234.561 -10.824 211.469 2.25652C199.724 8.90972 188.402 16.2074 177.959 23.0732C175.717 24.5474 173.527 25.9934 171.385 27.4079C163.372 32.6995 156.029 37.5488 149.108 41.7748C140.262 47.1765 133.251 50.8336 127.775 52.7259C124.711 53.7847 122.959 54.0007 122.13 54.0305C121.724 53.376 121.09 52.0826 120.413 49.7177C118.68 43.6692 117.566 33.446 118.164 17.1735L82.1887 15.8508C81.537 33.5783 82.533 48.2144 85.8056 59.6347C89.1226 71.2096 95.6122 82.0488 107.63 87.2085C118.915 92.0534 130.574 89.8474 139.533 86.7515C148.798 83.55 158.497 78.2228 167.87 72.4995C175.391 67.9066 183.438 62.5916 191.523 57.2514C193.594 55.8835 195.668 54.5138 197.736 53.1543C208.065 46.3637 218.559 39.6146 229.212 33.5803C250.917 21.2859 271.191 13.2098 289.373 13.0111C293.745 12.9633 297.261 13.0786 300.058 13.2846C297.653 16.7585 294.45 20.9015 290.421 25.8933C288.264 28.5647 285.909 31.4223 283.408 34.4585C261.477 61.0728 228.238 101.411 218.054 150.345C215.27 163.724 214.505 176.419 218.071 187.079C222.225 199.493 231.615 207.229 243.436 209.653C253.567 211.73 264.373 209.722 273.796 206.891C283.631 203.937 294.26 199.356 304.964 194.117C321.919 185.82 340.69 175.04 358.673 164.713C363.269 162.073 367.814 159.463 372.265 156.931C394.896 144.056 414.691 133.444 429.33 128.601C429.83 128.436 430.284 128.297 430.695 128.181C431.391 137.62 427.904 154.384 421.001 175.558C414.286 196.154 405.305 218.159 397.505 236.313C394.1 244.24 390.956 251.351 388.339 257.269C387.968 258.109 387.607 258.924 387.258 259.714ZM430.11 124.803C430.108 124.806 430.125 124.852 430.166 124.931C430.133 124.84 430.112 124.8 430.11 124.803ZM433.928 127.584C434.008 127.596 434.051 127.596 434.053 127.594C434.054 127.591 434.014 127.585 433.928 127.584ZM122.589 54.6146C122.592 54.6069 122.545 54.5512 122.44 54.4702C122.533 54.5818 122.585 54.6223 122.589 54.6146Z" fill="#FFF857" stroke="black"/>
<g clip-path="url(#clip1_1006_78128)">
<path fill-rule="evenodd" clip-rule="evenodd" d="M95.1699 307.788H101.943C103.551 307.782 105.144 308.096 106.63 308.712C108.115 309.328 109.464 310.233 110.596 311.375C111.729 312.517 112.623 313.872 113.226 315.363C113.83 316.853 114.131 318.449 114.113 320.057V326.83C114.113 330.058 112.831 333.153 110.548 335.435C108.266 337.718 105.17 339 101.943 339H95.1699C91.947 338.985 88.8604 337.698 86.5814 335.419C84.3024 333.14 83.0153 330.053 83 326.83V320.057C82.9956 316.819 84.2731 313.711 86.5536 311.411C88.834 309.112 91.9318 307.81 95.1699 307.788ZM105.043 321.624H108.517V325.752H105.002L107.331 329.773L103.758 331.837L101.429 327.808L97.6735 334.233L94.117 332.152L97.8559 325.752H88.5958V321.624H97.8476L93.8269 314.677L97.3916 312.612L101.445 319.618L103.825 315.547L107.389 317.628L105.043 321.624Z" fill="black"/>
<path d="M174.382 317.893V328.894L174.399 328.985H170.08V333.014H182.938V328.985H179.804V313.873H171.066V317.893H174.382Z" fill="black"/>
<path d="M179.787 311.419V307L174.283 307.025V311.419H179.787Z" fill="black"/>
<path fill-rule="evenodd" clip-rule="evenodd" d="M166.431 323.398C166.431 316.816 162.112 313.383 156.027 313.383C150.041 313.383 145.722 316.824 145.722 323.398C145.722 329.972 150.141 333.404 156.126 333.404C162.112 333.404 166.431 329.98 166.431 323.398ZM160.935 323.398C160.935 327.22 159.069 329.284 156.027 329.284C153.084 329.284 151.119 327.228 151.119 323.398C151.119 319.568 152.984 317.504 156.027 317.504C159.069 317.504 160.935 319.576 160.935 323.398Z" fill="black"/>
<path d="M192.446 313.872V315.738H192.645C193.922 314.163 195.878 313.483 198.448 313.483C202.966 313.483 205.81 315.837 205.81 320.546V332.915H200.413V321.035C200.413 318.78 199.236 317.719 196.981 317.719C194.494 317.719 192.562 318.996 192.562 322.328V333.031H187.165V313.872H192.446Z" fill="black"/>
<path d="M227.411 319.243C227.022 315.794 223.979 313.439 218.483 313.439C213.011 313.439 209.911 315.703 209.911 319.143C209.911 322.583 212.365 324.25 216.095 324.838L219.925 325.526C221.592 325.833 222.47 326.314 222.47 327.491C222.47 328.668 221.293 329.547 218.939 329.547C216.584 329.547 214.719 328.768 214.62 326.803H209.645V327.392C209.944 330.733 213.078 333.377 218.972 333.377C224.866 333.377 227.61 330.625 227.61 327.193C227.61 323.761 225.057 322.186 221.136 321.506L217.306 320.818C215.929 320.619 215.051 320.237 215.051 319.052C215.051 317.866 216.228 317.187 218.483 317.187C220.738 317.187 222.412 317.775 222.503 319.732H227.411V319.243Z" fill="black"/>
<path d="M236.425 313.873V308.683H241.821V313.889H248.694V317.91H241.821V328.323L242.012 328.613H248.395V332.932H242.012C238.58 332.932 236.425 331.067 236.425 327.734V317.894H231.019V313.873H236.425Z" fill="black"/>
<path fill-rule="evenodd" clip-rule="evenodd" d="M261.651 313.483C256.345 313.483 253.203 315.837 252.814 319.369V319.733H257.721C257.92 317.968 259.197 317.089 261.551 317.089C263.906 317.089 265.083 318.067 265.083 320.131V320.521L258.608 321.35C254.878 321.839 251.835 323.704 251.835 327.435C251.835 331.165 254.778 333.321 259.098 333.321C262.729 333.321 264.295 332.144 264.983 331.066H265.282V333.014H270.19V321.035C270.19 315.837 266.957 313.483 261.651 313.483ZM265.083 324.965C265.083 327.908 263.019 329.383 260.275 329.383V329.408C258.31 329.408 257.133 328.488 257.133 327.12C257.133 325.752 258.21 325.064 259.786 324.865L265.083 324.177V324.965Z" fill="black"/>
<path d="M281.457 313.873V316.36H281.755C282.443 314.884 283.91 313.873 286.729 313.873H291.338V318.192H286.828C283.388 318.192 281.622 319.85 281.622 323.688V333.014H276.225V313.873H281.457Z" fill="black"/>
<path d="M142.581 320.347C142.382 316.699 139.24 313.383 133.354 313.383C127.369 313.383 123.182 316.915 123.182 323.613C123.182 330.312 127.51 333.628 133.396 333.628C139.282 333.628 142.424 330.287 142.722 326.465V325.877H137.748C137.549 327.543 136.48 329.408 133.529 329.408C130.577 329.408 128.613 327.244 128.613 323.514C128.613 319.783 130.478 317.628 133.529 317.628C136.397 317.628 137.475 319.369 137.674 320.944H142.581V320.347Z" fill="black"/>
</g>
<path fill-rule="evenodd" clip-rule="evenodd" d="M-124.748 433.476C-130.336 436.76 -135.445 439.758 -138.264 441.135L-154.068 408.79C-152.838 408.189 -149.326 406.163 -142.985 402.437C-142.25 402.005 -141.488 401.557 -140.7 401.094C-135.126 397.817 -128.256 393.778 -120.597 389.383C-103.16 379.378 -81.222 367.289 -60.0448 357.568C-39.7216 348.239 -17.1914 339.674 0.388756 339.209C9.21784 338.975 21.3285 340.677 29.6867 350.521C38.1089 360.44 38.1347 373.196 35.9128 383.92C31.9353 403.115 22.1363 427.294 12.2068 450.645C10.0505 455.717 7.87513 460.777 5.71526 465.802C-2.41858 484.723 -10.3331 503.135 -16.1885 519.69C-19.8714 530.103 -22.485 539.1 -23.7955 546.442C-24.8756 552.492 -24.8306 556.168 -24.5563 558.11C-22.132 558.248 -17.0264 557.818 -7.99472 554.822C30.4227 542.075 60.3438 511.202 85.0191 485.742C87.7315 482.943 90.3806 480.21 92.9705 477.573C99.1832 471.249 105.475 465.095 111.432 460.493C116.645 456.465 125.121 450.733 135.28 450.798C148.57 450.882 156.484 460.066 160.432 468.49C164.131 476.385 166.135 486.767 167.374 498.615C170.243 526.035 161.546 554.071 151.206 578.513C145.947 590.946 139.998 603.031 134.378 614.194C133.171 616.59 131.987 618.932 130.828 621.222C126.492 629.79 122.519 637.642 119.116 645.002C114.767 654.41 111.939 661.796 110.689 667.453C109.989 670.618 109.976 672.383 110.042 673.21C110.739 673.539 112.096 674.019 114.523 674.421C120.731 675.447 131.014 675.378 147.11 672.914L152.559 708.499C135.023 711.184 120.37 711.877 108.649 709.938C96.7697 707.973 85.2565 702.772 78.7499 691.427C72.6403 680.774 73.4918 668.938 75.5376 659.683C77.6532 650.112 81.8305 639.864 86.4387 629.896C90.1368 621.897 94.4918 613.292 98.8675 604.647C99.9884 602.432 101.111 600.215 102.224 598.005C107.782 586.964 113.281 575.763 118.051 564.487C127.769 541.514 133.462 520.445 131.57 502.361C131.115 498.013 130.596 494.533 130.07 491.778C126.896 494.567 123.148 498.224 118.653 502.801C116.247 505.25 113.679 507.918 110.95 510.752C87.0324 535.596 50.7813 573.25 3.34222 588.99C-9.62859 593.294 -22.1517 595.512 -33.1513 593.195C-45.9602 590.496 -54.7241 582.056 -58.4903 570.592C-61.718 560.767 -60.9644 549.802 -59.2353 540.115C-57.4309 530.007 -54.1021 518.922 -50.1283 507.687C-43.8341 489.89 -35.2828 470.005 -27.0907 450.955C-24.9966 446.085 -22.926 441.27 -20.9226 436.558C-10.7341 412.597 -2.467 391.714 0.661569 376.615C0.768322 376.1 0.854014 375.633 0.922484 375.211C-8.53438 375.605 -24.7865 380.995 -45.0266 390.286C-64.7145 399.323 -85.5417 410.773 -102.68 420.607C-110.163 424.901 -116.864 428.842 -122.443 432.122C-123.234 432.587 -124.003 433.039 -124.748 433.476ZM4.34481 375.404C4.34208 375.406 4.29493 375.395 4.21149 375.363C4.30582 375.385 4.34754 375.401 4.34481 375.404ZM1.14387 371.931C1.12307 371.853 1.11743 371.81 1.11982 371.808C1.12221 371.806 1.13261 371.845 1.14387 371.931ZM109.409 672.822C109.416 672.818 109.477 672.857 109.569 672.953C109.448 672.874 109.402 672.826 109.409 672.822Z" fill="white" stroke="black"/>
<path d="M220.446 492.691C220.35 494.189 220.224 495.676 220.07 497.151C219.593 501.704 218.845 506.148 217.846 510.461C216.881 514.625 215.683 518.666 214.272 522.563C212.688 526.933 210.837 531.122 208.744 535.099C206.534 539.299 204.056 543.263 201.342 546.954C198.667 550.594 195.763 553.97 192.661 557.046C188.876 560.801 184.797 564.11 180.482 566.912C176.394 569.568 172.093 571.767 167.629 573.459C166.869 573.747 166.104 574.02 165.335 574.279C157.955 576.756 150.162 577.853 142.169 577.339C102.113 574.761 72.2135 532.684 75.3877 483.357C78.5619 434.029 113.608 396.131 153.664 398.709C159.946 399.113 165.978 400.489 171.672 402.711C174.168 403.686 176.599 404.823 178.957 406.112C182.533 408.067 185.943 410.372 189.16 412.991C194.212 417.104 198.79 421.989 202.792 427.507C206.052 432.001 208.93 436.914 211.372 442.17C213.33 446.384 215.008 450.819 216.378 455.434C217.683 459.831 218.709 464.392 219.43 469.083C220.108 473.488 220.517 478.008 220.639 482.614C220.726 485.932 220.665 489.294 220.446 492.691Z" fill="#FFF857"/>
<path d="M189.16 412.991L119.42 408.503M189.16 412.991C194.212 417.104 198.79 421.989 202.792 427.507M189.16 412.991C185.943 410.372 182.533 408.067 178.957 406.112C176.599 404.823 174.168 403.686 171.672 402.711M202.792 427.507L109.62 421.511M202.792 427.507C206.052 432.001 208.93 436.914 211.372 442.17M211.372 442.17L108.715 435.564M211.372 442.17C213.33 446.384 215.008 450.819 216.378 455.434M216.378 455.434L107.886 448.453M216.378 455.434C217.683 459.831 218.709 464.392 219.43 469.083M219.43 469.083L107.024 461.85M219.43 469.083C220.108 473.488 220.517 478.008 220.639 482.614M220.639 482.614C220.726 485.932 220.665 489.294 220.446 492.691C220.35 494.189 220.224 495.676 220.07 497.151M220.639 482.614L106.162 475.247M220.07 497.151L105.228 489.761M220.07 497.151C219.593 501.704 218.845 506.148 217.846 510.461M217.846 510.461L107.155 503.338M217.846 510.461C216.881 514.625 215.683 518.666 214.272 522.563M214.272 522.563L109.155 515.798M214.272 522.563C212.688 526.933 210.837 531.122 208.744 535.099M208.744 535.099L122.834 529.571M208.744 535.099C206.534 539.299 204.056 543.263 201.342 546.954M201.342 546.954L141.013 543.072M201.342 546.954C198.667 550.594 195.763 553.97 192.661 557.046M192.661 557.046L140.331 553.678M192.661 557.046C188.876 560.801 184.797 564.11 180.482 566.912M180.482 566.912L124.026 563.279M180.482 566.912C176.394 569.568 172.093 571.767 167.629 573.459C166.869 573.747 166.104 574.02 165.335 574.279M165.335 574.279C157.955 576.756 150.162 577.853 142.169 577.339C102.113 574.761 72.2135 532.684 75.3877 483.357C78.5619 434.029 113.608 396.131 153.664 398.709C159.946 399.113 165.978 400.489 171.672 402.711M165.335 574.279L129.628 571.981M165.722 402.848L171.672 402.711" stroke="black"/>
<ellipse cx="142.338" cy="487.665" rx="67.0885" ry="89.5" transform="rotate(3.68194 142.338 487.665)" fill="#FFF857" stroke="black"/>
<path d="M146.971 398.278L139.932 577.195" stroke="black"/>
<path d="M209.001 496.439L75.2377 485.589" stroke="black"/>
<path d="M207.021 509.764L76.8373 469.437" stroke="black"/>
<path d="M191.225 546.304L90.3734 433.313" stroke="black"/>
<path d="M183.29 556.443L100.79 419.409" stroke="black"/>
<path d="M172.043 565.809L112.704 408.405" stroke="black"/>
<path d="M158.114 573.321L128.342 400.443" stroke="black"/>
<path d="M85.2951 538.366L201.885 441.609" stroke="black"/>
<path d="M106.359 515.619L206.074 454.772" stroke="black"/>
<path d="M108.19 565.624L180.771 412.785" stroke="black"/>
<path d="M94.3956 553.525L193.849 427.079" stroke="black"/>
<path d="M122.264 573.256L166.281 402.884" stroke="black"/>
<path d="M78.6293 519.999L209.157 467.861" stroke="black"/>
<path d="M75.388 500.733L209.374 481.889" stroke="black"/>
<path d="M81.5243 453.825L203.114 522.063" stroke="black"/>
<ellipse cx="142.338" cy="487.665" rx="57.0252" ry="76.075" transform="rotate(3.68194 142.338 487.665)" fill="#FFF857" stroke="black"/>
<ellipse cx="141.216" cy="487.592" rx="45.8438" ry="62.65" transform="rotate(3.68194 141.216 487.592)" fill="#FFF857" stroke="black"/>
</g>
<g clip-path="url(#clip2_1006_78128)">
<rect x="20" y="630" width="335" height="143" rx="32" fill="#6688FF"/>
<path fill-rule="evenodd" clip-rule="evenodd" d="M121.513 869.714C124.133 875.643 126.524 881.062 127.568 884.021L93.6208 896.003C93.1652 894.712 91.5565 890.991 88.5842 884.263C88.2398 883.484 87.8822 882.675 87.5125 881.839C84.8978 875.926 81.6749 868.637 78.1891 860.523C70.254 842.053 60.7664 818.871 53.5437 796.717C46.6122 775.456 40.6932 752.091 42.2514 734.574C43.034 725.776 46.1162 713.941 56.8551 706.77C67.6764 699.543 80.3512 700.983 90.7482 704.423C109.359 710.58 132.252 723.093 154.308 735.64C159.097 738.365 163.874 741.107 168.617 743.83C186.479 754.085 203.859 764.063 219.632 771.782C229.553 776.637 238.189 780.267 245.332 782.413C251.218 784.181 254.875 784.559 256.835 784.509C257.251 782.117 257.411 776.996 255.472 767.68C247.225 728.052 219.995 694.781 197.539 667.344C195.071 664.327 192.66 661.382 190.339 658.506C184.77 651.608 179.38 644.65 175.493 638.204C172.091 632.562 167.371 623.484 168.602 613.4C170.214 600.207 180.246 593.401 189.068 590.448C197.336 587.68 207.879 586.883 219.791 587.013C247.359 587.315 274.21 599.176 297.302 612.257C309.048 618.91 320.369 626.207 330.812 633.073C333.054 634.547 335.244 635.993 337.386 637.408C345.399 642.699 352.742 647.549 359.663 651.775C368.509 657.176 375.52 660.834 380.996 662.726C384.06 663.785 385.812 664.001 386.641 664.03C387.048 663.376 387.681 662.083 388.358 659.718C390.092 653.669 391.205 643.446 390.607 627.173L426.583 625.851C427.234 643.578 426.238 658.214 422.966 669.635C419.649 681.21 413.159 692.049 401.141 697.208C389.856 702.053 378.197 699.847 369.238 696.752C359.974 693.55 350.274 688.223 340.901 682.499C333.38 677.907 325.333 672.592 317.248 667.251C315.177 665.883 313.103 664.514 311.035 663.154C300.707 656.364 290.212 649.615 279.559 643.58C257.854 631.286 237.58 623.21 219.398 623.011C215.026 622.963 211.51 623.079 208.713 623.285C211.118 626.758 214.321 630.902 218.351 635.893C220.507 638.565 222.862 641.422 225.364 644.458C247.294 671.073 280.533 711.411 290.717 760.345C293.502 773.724 294.266 786.419 290.7 797.079C286.547 809.493 277.156 817.229 265.335 819.653C255.204 821.73 244.398 819.722 234.975 816.891C225.141 813.937 214.512 809.356 203.807 804.117C186.852 795.82 168.081 785.04 150.099 774.713C145.502 772.073 140.957 769.463 136.507 766.931C113.875 754.056 94.0801 743.444 79.4411 738.601C78.9416 738.436 78.4874 738.297 78.0759 738.181C77.3806 747.62 80.8675 764.384 87.7706 785.558C94.4854 806.154 103.467 828.159 111.266 846.313C114.671 854.24 117.815 861.351 120.433 867.269C120.804 868.109 121.164 868.924 121.513 869.714ZM78.661 734.803C78.6631 734.806 78.6466 734.852 78.6052 734.931C78.6382 734.84 78.6589 734.8 78.661 734.803ZM74.8433 737.584C74.7633 737.596 74.72 737.596 74.7184 737.594C74.7168 737.591 74.7568 737.585 74.8433 737.584ZM386.183 664.615C386.179 664.607 386.226 664.551 386.331 664.47C386.239 664.582 386.186 664.622 386.183 664.615Z" fill="#4D72F5" stroke="black"/>
</g>
<defs>
<clipPath id="clip0_1006_78128">
<rect x="20" y="39" width="335" height="567" rx="32" fill="white"/>
</clipPath>
<clipPath id="clip1_1006_78128">
<rect width="209" height="32" fill="white" transform="translate(83 307)"/>
</clipPath>
<clipPath id="clip2_1006_78128">
<rect x="20" y="630" width="335" height="143" rx="32" fill="white"/>
</clipPath>
</defs>
</svg>
