<svg width="375" height="812" viewBox="0 0 375 812" fill="none" xmlns="http://www.w3.org/2000/svg">
<g clip-path="url(#clip0_1175_117261)">
<rect width="375" height="812" fill="#EAEEFF"/>
<path fill-rule="evenodd" clip-rule="evenodd" d="M450.24 198.67C447.415 205.059 444.835 210.899 443.709 214.088L480.324 227C480.815 225.609 482.55 221.598 485.756 214.349C486.128 213.508 486.513 212.637 486.912 211.736C489.732 205.364 493.208 197.509 496.968 188.765C505.526 168.86 515.759 143.878 523.549 120.003C531.025 97.0914 537.409 71.9116 535.729 53.0341C534.885 43.5535 531.56 30.7995 519.978 23.0711C508.306 15.2834 494.636 16.8355 483.422 20.5422C463.349 27.1774 438.658 40.6618 414.869 54.1835C409.703 57.12 404.551 60.0754 399.435 63.0099C380.17 74.0607 361.425 84.8135 344.413 93.1321C333.713 98.3643 324.397 102.276 316.694 104.589C310.345 106.494 306.401 106.901 304.287 106.848C303.838 104.27 303.665 98.751 305.757 88.7114C314.652 46.0061 344.021 10.1515 368.241 -19.4169C370.903 -22.6672 373.503 -25.8416 376.007 -28.9407C382.014 -36.3748 387.828 -43.8724 392.02 -50.8189C395.689 -56.8991 400.78 -66.6828 399.451 -77.5494C397.713 -91.7669 386.892 -99.1017 377.377 -102.284C368.46 -105.267 357.089 -106.126 344.241 -105.986C314.507 -105.661 285.547 -92.8783 260.64 -78.7819C247.972 -71.612 235.761 -63.7476 224.498 -56.3486C222.079 -54.76 219.718 -53.2016 217.407 -51.6773C208.765 -45.9748 200.845 -40.7489 193.381 -36.1947C183.84 -30.3735 176.277 -26.4323 170.371 -24.3931C167.067 -23.2521 165.177 -23.0193 164.283 -22.9872C163.844 -23.6925 163.162 -25.0864 162.431 -27.6349C160.561 -34.1531 159.36 -45.1703 160.006 -62.7065L121.204 -64.1319C120.501 -45.0277 121.575 -29.2549 125.105 -16.9478C128.682 -4.47396 135.682 7.20701 148.644 12.7673C160.815 17.9885 173.391 15.6112 183.053 12.2749C193.046 8.82478 203.507 3.08385 213.616 -3.08394C221.728 -8.03346 230.407 -13.7612 239.128 -19.5162C241.362 -20.9904 243.598 -22.4663 245.829 -23.9315C256.968 -31.2494 268.288 -38.5226 279.778 -45.0256C303.187 -58.2748 325.055 -66.978 344.665 -67.1921C349.38 -67.2436 353.173 -67.1194 356.19 -66.8974C353.596 -63.1538 350.141 -58.689 345.795 -53.3095C343.469 -50.4307 340.929 -47.3512 338.231 -44.0792C314.577 -15.398 278.727 28.0727 267.743 80.8065C264.74 95.225 263.915 108.906 267.762 120.394C272.241 133.772 282.369 142.109 295.119 144.721C306.046 146.959 317.701 144.795 327.865 141.744C338.471 138.561 349.935 133.624 361.481 127.979C379.768 119.037 400.013 107.42 419.409 96.2905C424.367 93.4457 429.269 90.6328 434.069 87.9046C458.478 74.0301 479.828 62.5937 495.617 57.3747C496.156 57.1966 496.646 57.047 497.09 56.9214C497.84 67.094 494.079 85.1598 486.634 107.978C479.391 130.173 469.704 153.887 461.292 173.452C457.619 181.994 454.228 189.657 451.406 196.035C451.005 196.939 450.616 197.818 450.24 198.67ZM496.459 53.2817C496.457 53.2849 496.474 53.334 496.519 53.4193C496.483 53.3211 496.461 53.2784 496.459 53.2817ZM500.576 56.2782C500.663 56.2908 500.709 56.2915 500.711 56.2888C500.713 56.286 500.67 56.2797 500.576 56.2782ZM164.777 -22.3577C164.781 -22.366 164.731 -22.4261 164.617 -22.5133C164.717 -22.3931 164.774 -22.3495 164.777 -22.3577Z" fill="#DEE5FF" stroke="black"/>
</g>
<defs>
<clipPath id="clip0_1175_117261">
<rect width="375" height="812" fill="white"/>
</clipPath>
</defs>
</svg>
