<svg width="24" height="24" viewBox="0 0 24 24" fill="none" xmlns="http://www.w3.org/2000/svg">
<path fill-rule="evenodd" clip-rule="evenodd" d="M8.5 5C8.5 6.933 10.067 8.5 12 8.5C13.933 8.5 15.5 6.933 15.5 5C15.5 3.067 13.933 1.5 12 1.5C10.067 1.5 8.5 3.067 8.5 5ZM7 5C7 7.76142 9.23858 10 12 10C14.7614 10 17 7.76142 17 5C17 2.23858 14.7614 0 12 0C9.23858 0 7 2.23858 7 5ZM3.58775 20.6162C4.92812 17.0259 8.27178 14.5 12 14.5C15.7282 14.5 19.0719 17.0259 20.4123 20.6162C20.5892 21.0901 20.4875 21.5018 20.195 21.8459C19.8762 22.2208 19.3264 22.5 18.6967 22.5L5.30331 22.5C4.67364 22.5 4.12381 22.2208 3.80502 21.8459C3.51249 21.5018 3.41083 21.0901 3.58775 20.6162ZM5.30331 24C3.1899 24 1.41417 22.1495 2.18248 20.0915C3.7176 15.9796 7.57918 13 12 13C16.4208 13 20.2824 15.9796 21.8175 20.0915C22.5858 22.1495 20.8101 24 18.6967 24L5.30331 24Z" fill="black"/>
</svg>
