<svg width="24" height="24" viewBox="0 0 24 24" fill="none" xmlns="http://www.w3.org/2000/svg">
<path fill-rule="evenodd" clip-rule="evenodd" d="M1.5 12C1.5 16.0914 2.08568 17.5592 3.15546 18.3094C3.75115 18.7271 4.66518 19.0482 6.15352 19.2459C7.63506 19.4426 9.53386 19.5 12 19.5C14.4661 19.5 16.3649 19.4426 17.8465 19.2459C19.3348 19.0482 20.2488 18.7271 20.8445 18.3094C21.9143 17.5592 22.5 16.0914 22.5 12C22.5 11.14 22.4741 10.3959 22.4233 9.75H1.57669C1.52588 10.3959 1.5 11.14 1.5 12ZM1.77026 8.25H22.2297C21.959 6.85683 21.4899 6.14316 20.8445 5.69064C20.2488 5.27292 19.3348 4.9518 17.8465 4.75413C16.3649 4.55736 14.4661 4.5 12 4.5C9.53386 4.5 7.63506 4.55736 6.15352 4.75413C4.66518 4.9518 3.75115 5.27292 3.15546 5.69064C2.51014 6.14316 2.04097 6.85683 1.77026 8.25ZM0 12C0 20.1 2.118 21 12 21C21.882 21 24 20.1 24 12C24 3.9 21.882 3 12 3C2.118 3 0 3.9 0 12Z" fill="black"/>
</svg>
